<svg width="368" height="99" viewBox="0 0 368 99" fill="none" xmlns="http://www.w3.org/2000/svg">
<path d="M31.68 78.344C25.536 78.344 19.712 77.832 14.208 76.808C8.768 75.72 4.576 74.504 1.632 73.16V54.152H22.752C22.752 56.136 23.2 57.576 24.096 58.472C24.992 59.368 26.624 59.816 28.992 59.816C30.976 59.816 32.384 59.528 33.216 58.952C34.112 58.312 34.56 57.384 34.56 56.168C34.56 55.144 34.144 54.28 33.312 53.576C32.48 52.808 31.04 52.04 28.992 51.272L20.736 48.392C13.632 45.704 8.512 42.536 5.376 38.888C2.304 35.24 0.768 30.312 0.768 24.104C0.768 16.552 3.232 10.824 8.16 6.92C13.152 2.952 21.44 0.967995 33.024 0.967995C38.592 0.967995 43.808 1.54399 48.672 2.696C53.6 3.784 57.568 5.256 60.576 7.112V24.296H41.376C41.376 21.096 39.392 19.496 35.424 19.496C33.504 19.496 32.128 19.752 31.296 20.264C30.528 20.712 30.144 21.544 30.144 22.76C30.144 23.848 30.592 24.712 31.488 25.352C32.448 25.992 33.984 26.664 36.096 27.368L44.448 30.248C51.232 32.552 56.16 35.56 59.232 39.272C62.368 42.92 63.936 47.72 63.936 53.672C63.936 61.8 61.184 67.944 55.68 72.104C50.24 76.264 42.24 78.344 31.68 78.344ZM124.304 61.256H128.432V77H104.912L95.0235 58.568H92.7195V77H66.4155V61.256H70.6395V18.056H66.4155V2.31199H92.7195V41.288H95.0235L106.928 23.624H127.184V39.368H123.248L115.088 48.488L124.304 61.256ZM136.086 18.344V2.31199H155.67V18.344H136.086ZM131.478 77V61.256H135.702V39.368H131.478V23.624H157.782V61.256H162.006V77H131.478ZM164.666 77.096V61.256H168.89V18.056H164.666V2.31199H190.97V61.256H195.194V77.096H164.666ZM198.228 77.096V61.256H202.452V18.056H198.228V2.31199H224.532V61.256H228.756V77.096H198.228ZM267.887 78.344C257.839 78.344 250.063 76.136 244.559 71.72C239.119 67.304 236.398 60.136 236.398 50.216V18.056H231.599V2.31199H267.119V18.056H263.279V55.112C263.279 57.224 263.727 58.792 264.623 59.816C265.583 60.776 266.991 61.256 268.847 61.256C270.703 61.256 272.079 60.776 272.975 59.816C273.935 58.792 274.415 57.224 274.415 55.112V18.056H270.575V2.31199H303.503V18.056H298.703V50.216C298.703 60.136 296.047 67.304 290.735 71.72C285.423 76.136 277.807 78.344 267.887 78.344ZM306.407 82.568H310.631V39.368H306.407V23.624H332.711V30.152C334.311 28.104 336.359 26.28 338.855 24.68C341.415 23.08 344.327 22.28 347.591 22.28C354.119 22.28 359.015 24.712 362.279 29.576C365.607 34.44 367.271 41.352 367.271 50.312C367.271 59.272 365.607 66.184 362.279 71.048C359.015 75.912 354.119 78.344 347.591 78.344C344.327 78.344 341.415 77.544 338.855 75.944C336.359 74.344 334.311 72.52 332.711 70.472V82.568H339.335V98.312H306.407V82.568ZM338.279 61.256C340.135 61.256 341.511 60.776 342.407 59.816C343.367 58.792 343.847 57.224 343.847 55.112V45.512C343.847 43.4 343.367 41.864 342.407 40.904C341.511 39.88 340.135 39.368 338.279 39.368C336.423 39.368 335.015 39.88 334.055 40.904C333.159 41.864 332.711 43.4 332.711 45.512V55.112C332.711 57.224 333.159 58.792 334.055 59.816C335.015 60.776 336.423 61.256 338.279 61.256Z" fill="url(#paint0_angular_51_5)"/>
<defs>
<radialGradient id="paint0_angular_51_5" cx="0" cy="0" r="1" gradientUnits="userSpaceOnUse" gradientTransform="translate(328.44 -2.00001) rotate(82.4004) scale(306.694 864.223)">
<stop offset="0.104167" stop-color="#0056D2"/>
<stop offset="0.552083" stop-color="#0056D2" stop-opacity="0"/>
</radialGradient>
</defs>
</svg>
